<svg width="160" height="200" viewBox="0 0 160 200" fill="none" xmlns="http://www.w3.org/2000/svg">
<g id="Illu/fleur-qui-chante">
<path id="Vector" d="M80 192C78 160 84 130 80 100" stroke="#2A2346" stroke-width="3" stroke-linecap="round" stroke-linejoin="round"/>
<path id="Vector_2" d="M80 152C60 142 50 122 56 110C70 116 80 130 80 152Z" fill="#8CC09A" stroke="#2A2346" stroke-width="2.5" stroke-linecap="round" stroke-linejoin="round"/>
<path id="Vector_3" d="M81 136C100 128 112 112 108 100C94 104 84 118 81 136Z" fill="#8CC09A" stroke="#2A2346" stroke-width="2.5" stroke-linecap="round" stroke-linejoin="round"/>
<path id="Vector_4" d="M56 58C56 90 70 104 80 104C90 104 104 90 104 58L92 72L80 50L68 72L56 58Z" fill="#E4573D" stroke="#2A2346" stroke-width="2.5" stroke-linecap="round" stroke-linejoin="round"/>
<path id="Vector_5" d="M116 52C122.667 60 122.667 68 116 76" stroke="#2A2346" stroke-width="2.5" stroke-linecap="round" stroke-linejoin="round"/>
<path id="Vector_6" d="M125 42C136.333 56.6667 136.333 71.3333 125 86" stroke="#2A2346" stroke-width="2.5" stroke-linecap="round" stroke-linejoin="round"/>
<path id="Vector_7" d="M134 32C150 53.3333 150 74.6667 134 96" stroke="#2A2346" stroke-width="2.5" stroke-linecap="round" stroke-linejoin="round"/>
<path id="Vector_8" d="M30 44V22L46 18V40" stroke="#2A2346" stroke-width="2.2" stroke-linecap="round" stroke-linejoin="round"/>
<path id="Vector_9" d="M26 49C28.7614 49 31 46.7614 31 44C31 41.2386 28.7614 39 26 39C23.2386 39 21 41.2386 21 44C21 46.7614 23.2386 49 26 49Z" fill="#2A2346"/>
<path id="Vector_10" d="M42 45C44.7614 45 47 42.7614 47 40C47 37.2386 44.7614 35 42 35C39.2386 35 37 37.2386 37 40C37 42.7614 39.2386 45 42 45Z" fill="#2A2346"/>
<path id="Vector_11" d="M36 84L37.56 88.44L42 90L37.56 91.56L36 96L34.44 91.56L30 90L34.44 88.44L36 84Z" fill="#F6C453" stroke="#2A2346" stroke-width="1.6" stroke-linecap="round" stroke-linejoin="round"/>
</g>
</svg>
